<svg width="13" height="12" viewBox="0 0 13 12" fill="none" xmlns="http://www.w3.org/2000/svg">
<g id="briefcase">
<g id="vuesax/outline/briefcase">
<g id="briefcase_2">
<path id="Vector" d="M8.66662 11.3749H4.66662C2.35662 11.3749 1.92662 10.2999 1.81662 9.25488L1.44162 5.24988C1.38662 4.72488 1.37162 3.94988 1.89162 3.36988C2.34162 2.86988 3.08662 2.62988 4.16662 2.62988H9.16662C10.2516 2.62988 10.9966 2.87488 11.4416 3.36988C11.9616 3.94988 11.9466 4.72488 11.8916 5.25488L11.5166 9.24988C11.4066 10.2999 10.9766 11.3749 8.66662 11.3749ZM4.16662 3.37488C3.32162 3.37488 2.74162 3.53988 2.44662 3.86988C2.20162 4.13988 2.12162 4.55488 2.18662 5.17488L2.56162 9.17988C2.64662 9.96988 2.86162 10.6249 4.66662 10.6249H8.66662C10.4666 10.6249 10.6866 9.96988 10.7716 9.17488L11.1466 5.17988C11.2116 4.55488 11.1316 4.13988 10.8866 3.86988C10.5916 3.53988 10.0116 3.37488 9.16662 3.37488H4.16662Z" fill="#199597"/>
<path id="Vector_2" d="M8.6665 3.375C8.4615 3.375 8.2915 3.205 8.2915 3V2.6C8.2915 1.71 8.2915 1.375 7.0665 1.375H6.2665C5.0415 1.375 5.0415 1.71 5.0415 2.6V3C5.0415 3.205 4.8715 3.375 4.6665 3.375C4.4615 3.375 4.2915 3.205 4.2915 3V2.6C4.2915 1.72 4.2915 0.625 6.2665 0.625H7.0665C9.0415 0.625 9.0415 1.72 9.0415 2.6V3C9.0415 3.205 8.8715 3.375 8.6665 3.375Z" fill="#199597"/>
<path id="Vector_3" d="M6.6665 8.375C5.2915 8.375 5.2915 7.525 5.2915 7.015V6.5C5.2915 5.795 5.4615 5.625 6.1665 5.625H7.1665C7.8715 5.625 8.0415 5.795 8.0415 6.5V7C8.0415 7.52 8.0415 8.375 6.6665 8.375ZM6.0415 6.375C6.0415 6.415 6.0415 6.46 6.0415 6.5V7.015C6.0415 7.53 6.0415 7.625 6.6665 7.625C7.2915 7.625 7.2915 7.545 7.2915 7.01V6.5C7.2915 6.46 7.2915 6.415 7.2915 6.375C7.2515 6.375 7.2065 6.375 7.1665 6.375H6.1665C6.1265 6.375 6.0815 6.375 6.0415 6.375Z" fill="#199597"/>
<path id="Vector_4" d="M7.66675 7.38512C7.48175 7.38512 7.31675 7.24512 7.29675 7.05512C7.27175 6.85012 7.41675 6.66012 7.62175 6.63512C8.94175 6.47012 10.2067 5.97012 11.2717 5.19512C11.4367 5.07012 11.6717 5.11012 11.7967 5.28012C11.9167 5.44512 11.8817 5.68012 11.7117 5.80512C10.5417 6.65512 9.16175 7.20012 7.71175 7.38512C7.69675 7.38512 7.68175 7.38512 7.66675 7.38512Z" fill="#199597"/>
<path id="Vector_5" d="M5.66687 7.39044C5.65187 7.39044 5.63687 7.39044 5.62187 7.39044C4.25187 7.23544 2.91687 6.73544 1.76187 5.94544C1.59187 5.83044 1.54687 5.59544 1.66187 5.42544C1.77687 5.25544 2.01187 5.21044 2.18187 5.32544C3.23687 6.04544 4.45187 6.50044 5.70187 6.64544C5.90687 6.67044 6.05687 6.85544 6.03187 7.06044C6.01687 7.25044 5.85687 7.39044 5.66687 7.39044Z" fill="#199597"/>
</g>
</g>
</g>
</svg>
