<svg width="16" height="15" viewBox="0 0 16 15" fill="none" xmlns="http://www.w3.org/2000/svg">
<path fill-rule="evenodd" clip-rule="evenodd" d="M3.53686 0.402977C2.99956 -0.134326 2.12842 -0.134326 1.59111 0.402977C1.05381 0.94028 1.05381 1.81142 1.59111 2.34872L6.13506 6.89267L0.562645 12.4651C0.0253423 13.0024 0.0253422 13.8735 0.562645 14.4108C1.09995 14.9481 1.97109 14.9481 2.50839 14.4108L8.0808 8.83841L13.6513 14.4089C14.1886 14.9462 15.0598 14.9462 15.5971 14.4089C16.1344 13.8716 16.1344 13.0005 15.5971 12.4632L10.0265 6.89267L14.5686 2.35062C15.1059 1.81331 15.1059 0.942173 14.5686 0.404871C14.0313 -0.132432 13.1602 -0.132432 12.6229 0.404871L8.0808 4.94692L3.53686 0.402977Z" fill="#D0D5DD"/>
</svg>
