<svg width="14" height="14" viewBox="0 0 14 14" fill="none" xmlns="http://www.w3.org/2000/svg">
<path d="M9.08829 7.00002C9.08829 8.15502 8.15495 9.08835 6.99995 9.08835C5.84495 9.08835 4.91162 8.15502 4.91162 7.00002C4.91162 5.84502 5.84495 4.91168 6.99995 4.91168C8.15495 4.91168 9.08829 5.84502 9.08829 7.00002Z" stroke="#8F9198" stroke-width="1.5" stroke-linecap="round" stroke-linejoin="round"/>
<path d="M6.99991 11.8242C9.05908 11.8242 10.9782 10.6108 12.3141 8.51085C12.8391 7.68835 12.8391 6.30585 12.3141 5.48335C10.9782 3.38335 9.05908 2.17001 6.99991 2.17001C4.94074 2.17001 3.02158 3.38335 1.68574 5.48335C1.16074 6.30585 1.16074 7.68835 1.68574 8.51085C3.02158 10.6108 4.94074 11.8242 6.99991 11.8242Z" stroke="#8F9198" stroke-width="1.5" stroke-linecap="round" stroke-linejoin="round"/>
</svg>
