<svg width="18" height="18" viewBox="0 0 18 18" fill="none" xmlns="http://www.w3.org/2000/svg">
<g id="vuesax/bulk/edit-2">
<g id="vuesax/bulk/edit-2_2">
<g id="edit-2">
<path id="Vector" opacity="0.4" d="M15.4998 16.222H2.49968C2.20357 16.222 1.95801 15.9765 1.95801 15.6803C1.95801 15.3842 2.20357 15.1387 2.49968 15.1387H15.4998C15.7959 15.1387 16.0415 15.3842 16.0415 15.6803C16.0415 15.9765 15.7959 16.222 15.4998 16.222Z" fill="#38CB89"/>
<path id="Vector_2" opacity="0.4" d="M14.0696 2.84665C12.6685 1.44553 11.2963 1.40942 9.85905 2.84665L8.98515 3.72055C8.91293 3.79277 8.88404 3.90833 8.91293 4.00944C9.46182 5.92335 10.9929 7.45448 12.9069 8.00337C12.9357 8.01059 12.9646 8.01781 12.9935 8.01781C13.073 8.01781 13.1452 7.98893 13.203 7.93115L14.0696 7.05725C14.7846 6.34947 15.1313 5.66335 15.1313 4.97001C15.1385 4.255 14.7919 3.56166 14.0696 2.84665Z" fill="#38CB89"/>
<path id="Vector_3" d="M11.6071 8.65996C11.3977 8.55885 11.1954 8.45774 11.0004 8.34218C10.8415 8.24829 10.6899 8.14718 10.5382 8.03885C10.4154 7.9594 10.271 7.84384 10.1338 7.72829C10.1193 7.72107 10.0688 7.67773 10.011 7.61995C9.77264 7.41773 9.50541 7.15773 9.26708 6.86884C9.24541 6.85439 9.2093 6.80383 9.15874 6.73883C9.08652 6.65217 8.96374 6.50772 8.85541 6.34161C8.76874 6.23327 8.66763 6.07438 8.57374 5.91549C8.45818 5.72049 8.35707 5.52549 8.25596 5.32327C8.15485 5.1066 8.0754 4.89715 8.00318 4.70215L3.46758 9.23775C3.37369 9.33164 3.28702 9.51219 3.26536 9.63497L2.87535 12.4011C2.80313 12.8922 2.94035 13.3545 3.24369 13.665C3.50369 13.9178 3.86481 14.055 4.25481 14.055C4.34148 14.055 4.42814 14.0478 4.51481 14.0333L7.28817 13.6433C7.41817 13.6217 7.59873 13.535 7.6854 13.4411L12.221 8.90552C12.0188 8.8333 11.8238 8.75385 11.6071 8.65996Z" fill="#38CB89"/>
</g>
</g>
</g>
</svg>
