<svg width="19" height="18" viewBox="0 0 19 18" fill="none" xmlns="http://www.w3.org/2000/svg">
<g id="vuesax/outline/import">
<g id="vuesax/outline/import_2">
<g id="import">
<path id="Vector" d="M11.945 16.6872H7.055C3.3725 16.6872 1.7975 15.1122 1.7975 11.4297V11.3322C1.7975 8.00221 3.11 6.39721 6.05 6.11971C6.35 6.09721 6.635 6.32221 6.665 6.62971C6.695 6.93721 6.47 7.21471 6.155 7.24471C3.8 7.46221 2.9225 8.57221 2.9225 11.3397V11.4372C2.9225 14.4897 4.0025 15.5697 7.055 15.5697H11.945C14.9975 15.5697 16.0775 14.4897 16.0775 11.4372V11.3397C16.0775 8.55721 15.185 7.44721 12.785 7.24471C12.4775 7.21471 12.245 6.94471 12.275 6.63721C12.305 6.32971 12.5675 6.09721 12.8825 6.12721C15.8675 6.38221 17.2025 7.99471 17.2025 11.3472V11.4447C17.2025 15.1122 15.6275 16.6872 11.945 16.6872Z" fill="#514747"/>
<path id="Vector_2" d="M9.5 11.7225C9.1925 11.7225 8.9375 11.4675 8.9375 11.16V1.5C8.9375 1.1925 9.1925 0.9375 9.5 0.9375C9.8075 0.9375 10.0625 1.1925 10.0625 1.5V11.16C10.0625 11.475 9.8075 11.7225 9.5 11.7225Z" fill="#514747"/>
<path id="Vector_3" d="M9.50001 12.5624C9.35751 12.5624 9.21501 12.5099 9.10251 12.3974L6.59 9.88488C6.3725 9.66738 6.3725 9.30738 6.59 9.08988C6.8075 8.87238 7.16751 8.87238 7.38501 9.08988L9.50001 11.2049L11.615 9.08988C11.8325 8.87238 12.1925 8.87238 12.41 9.08988C12.6275 9.30738 12.6275 9.66738 12.41 9.88488L9.8975 12.3974C9.785 12.5099 9.64251 12.5624 9.50001 12.5624Z" fill="#514747"/>
</g>
</g>
</g>
</svg>
