<svg width="11" height="14" viewBox="0 0 11 14" fill="none" xmlns="http://www.w3.org/2000/svg">
<g id="Group">
<path id="Vector" d="M6.7335 5.66602C6.7335 6.43921 6.10669 7.06602 5.3335 7.06602C4.5603 7.06602 3.9335 6.43921 3.9335 5.66602C3.9335 4.89282 4.5603 4.26602 5.3335 4.26602C6.10669 4.26602 6.7335 4.89282 6.7335 5.66602Z" stroke="#199597" stroke-width="1.2" stroke-linecap="round" stroke-linejoin="round"/>
<path id="Vector_2" d="M1.98636 2.31937C2.87403 1.4317 4.07798 0.933008 5.33333 0.933008C6.58869 0.933008 7.79263 1.4317 8.68031 2.31937C9.56798 3.20704 10.0667 4.41098 10.0667 5.66634C10.0667 6.25464 10.0041 6.7085 9.87164 7.10806C9.74101 7.50213 9.53281 7.87238 9.20551 8.28231L5.33333 12.7502L1.46115 8.28231C1.13386 7.87238 0.925651 7.50213 0.795027 7.10806C0.662582 6.7085 0.6 6.25464 0.6 5.66634C0.6 4.41098 1.09869 3.20704 1.98636 2.31937Z" stroke="#199597" stroke-width="1.2" stroke-linecap="round" stroke-linejoin="round"/>
</g>
</svg>
