<svg width="34" height="34" viewBox="0 0 34 34" fill="none" xmlns="http://www.w3.org/2000/svg">
<rect width="34" height="34" rx="8" fill="#FCF3E8"/>
<path d="M19.2948 22.5425C18.8298 22.8575 18.2448 23.12 17.5323 23.3525L16.3473 23.7425C13.3698 24.7025 11.8023 23.9 10.8348 20.9225L9.87477 17.96C8.91477 14.9825 9.70977 13.4075 12.6873 12.4475L13.8723 12.0575C14.1798 11.96 14.4723 11.8775 14.7498 11.825C14.5248 12.2825 14.3448 12.8375 14.1948 13.475L13.4598 16.6175C12.7248 19.7525 13.6923 21.2975 16.8198 22.04L18.0798 22.34C18.5148 22.445 18.9198 22.5125 19.2948 22.5425Z" stroke="#E1891C" stroke-width="1.5" stroke-linecap="round" stroke-linejoin="round"/>
<path d="M17.48 14.3975L21.1175 15.32" stroke="#E1891C" stroke-width="1.5" stroke-linecap="round" stroke-linejoin="round"/>
<path d="M16.7451 17.3L18.9201 17.855" stroke="#E1891C" stroke-width="1.5" stroke-linecap="round" stroke-linejoin="round"/>
<path d="M23.7201 11.825C24.5301 12.725 24.6726 14.015 24.2451 15.83L23.5101 18.965C22.8801 21.6725 21.6351 22.7675 19.2951 22.5425C18.9201 22.5125 18.5151 22.445 18.0801 22.34L16.8201 22.04C13.6926 21.2975 12.7251 19.7525 13.4601 16.6175L14.1951 13.475C14.3451 12.8375 14.5251 12.2825 14.7501 11.825C15.6276 10.01 17.1201 9.52251 19.6251 10.115L20.8776 10.4075" stroke="#E1891C" stroke-width="1.5" stroke-linecap="round" stroke-linejoin="round"/>
</svg>
