<svg width="34" height="34" viewBox="0 0 34 34" fill="none" xmlns="http://www.w3.org/2000/svg">
<rect width="34" height="34" rx="8" fill="#F1EBFC"/>
<path d="M21.7177 25.0625H12.2827C9.73271 25.0625 9.59771 23.66 9.48521 22.5275L9.18521 18.77C9.11771 18.0425 9.32771 17.315 9.79271 16.73C10.3477 16.055 11.1352 15.6875 11.9827 15.6875H22.0177C22.8502 15.6875 23.6377 16.055 24.1702 16.6925L24.2977 16.865C24.7027 17.42 24.8827 18.095 24.8152 18.7775L24.5152 22.52C24.4027 23.66 24.2677 25.0625 21.7177 25.0625ZM11.9827 16.8125C11.4802 16.8125 11.0002 17.0375 10.6852 17.4275L10.6327 17.48C10.3927 17.7875 10.2652 18.2225 10.3102 18.6725L10.6102 22.43C10.7152 23.525 10.7602 23.9375 12.2827 23.9375H21.7177C23.2477 23.9375 23.2852 23.525 23.3902 22.4225L23.6902 18.665C23.7352 18.2225 23.6077 17.78 23.3152 17.435L23.2402 17.345C22.9027 16.9925 22.4752 16.8125 22.0102 16.8125H11.9827Z" fill="#6530BC"/>
<path d="M23.375 17.165C23.0675 17.165 22.8125 16.91 22.8125 16.6025V15.26C22.8125 13.025 22.4225 12.635 20.1875 12.635H18.275C17.4275 12.635 17.135 12.335 16.8125 11.9075L15.845 10.625C15.515 10.19 15.44 10.085 14.765 10.085H13.8125C11.5775 10.085 11.1875 10.475 11.1875 12.71V16.5725C11.1875 16.88 10.9325 17.135 10.625 17.135C10.3175 17.135 10.0625 16.88 10.0625 16.5725V12.71C10.0625 9.83749 10.94 8.95999 13.8125 8.95999H14.7725C15.9275 8.95999 16.2875 9.33499 16.7525 9.94999L17.7125 11.225C17.915 11.495 17.93 11.51 18.2825 11.51H20.195C23.0675 11.51 23.945 12.3875 23.945 15.26V16.6025C23.9375 16.91 23.6825 17.165 23.375 17.165Z" fill="#6530BC"/>
<path d="M18.9273 21.3125H15.0723C14.7648 21.3125 14.5098 21.0575 14.5098 20.75C14.5098 20.4425 14.7648 20.1875 15.0723 20.1875H18.9273C19.2348 20.1875 19.4898 20.4425 19.4898 20.75C19.4898 21.0575 19.2423 21.3125 18.9273 21.3125Z" fill="#6530BC"/>
</svg>
