<svg width="18" height="18" viewBox="0 0 18 18" fill="none" xmlns="http://www.w3.org/2000/svg">
<g id="vuesax/outline/trash">
<g id="vuesax/outline/trash_2">
<g id="trash">
<path id="Vector" d="M15.5416 5.09961C15.5274 5.09961 15.5062 5.09961 15.4849 5.09961C11.7378 4.72419 7.99785 4.58252 4.29326 4.95794L2.84826 5.09961C2.55076 5.12794 2.28868 4.91544 2.26035 4.61794C2.23201 4.32044 2.44451 4.06544 2.73493 4.03711L4.17993 3.89544C7.94826 3.51294 11.7662 3.66169 15.5912 4.03711C15.8816 4.06544 16.0941 4.32752 16.0658 4.61794C16.0445 4.89419 15.8108 5.09961 15.5416 5.09961Z" fill="#A83C3D"/>
<path id="Vector_2" d="M6.68754 4.385C6.6592 4.385 6.63087 4.385 6.59545 4.37792C6.31212 4.32833 6.11379 4.05208 6.16337 3.76875L6.3192 2.84083C6.43254 2.16083 6.58837 1.21875 8.23879 1.21875H10.0946C11.7521 1.21875 11.908 2.19625 12.0142 2.84792L12.17 3.76875C12.2196 4.05917 12.0213 4.33542 11.738 4.37792C11.4475 4.4275 11.1713 4.22917 11.1288 3.94583L10.973 3.025C10.8738 2.40875 10.8525 2.28833 10.1017 2.28833H8.24587C7.49504 2.28833 7.48087 2.3875 7.37462 3.01792L7.2117 3.93875C7.1692 4.20083 6.94254 4.385 6.68754 4.385Z" fill="#A83C3D"/>
<path id="Vector_3" d="M11.4402 16.4477H6.8927C4.42062 16.4477 4.32145 15.0806 4.24354 13.9756L3.78312 6.84271C3.76187 6.55229 3.98854 6.29729 4.27895 6.27604C4.57645 6.26187 4.82437 6.48146 4.84562 6.77187L5.30604 13.9048C5.38395 14.9815 5.41229 15.3852 6.8927 15.3852H11.4402C12.9277 15.3852 12.956 14.9815 13.0269 13.9048L13.4873 6.77187C13.5085 6.48146 13.7635 6.26187 14.054 6.27604C14.3444 6.29729 14.571 6.54521 14.5498 6.84271L14.0894 13.9756C14.0115 15.0806 13.9123 16.4477 11.4402 16.4477Z" fill="#A83C3D"/>
<path id="Vector_4" d="M10.3421 12.5518H7.9834C7.69298 12.5518 7.45215 12.3109 7.45215 12.0205C7.45215 11.7301 7.69298 11.4893 7.9834 11.4893H10.3421C10.6326 11.4893 10.8734 11.7301 10.8734 12.0205C10.8734 12.3109 10.6326 12.5518 10.3421 12.5518Z" fill="#A83C3D"/>
<path id="Vector_5" d="M10.9372 9.71875H7.39551C7.10509 9.71875 6.86426 9.47792 6.86426 9.1875C6.86426 8.89708 7.10509 8.65625 7.39551 8.65625H10.9372C11.2276 8.65625 11.4684 8.89708 11.4684 9.1875C11.4684 9.47792 11.2276 9.71875 10.9372 9.71875Z" fill="#A83C3D"/>
</g>
</g>
</g>
</svg>
